HIERARCHY
ROOT Hips
{
	OFFSET -8.782735 38.637295 -16.742413
	CHANNELS 6 Xposition Yposition Zposition Xrotation Yrotation Zrotation
	JOINT Chest
	{
		OFFSET -5.049225 12.484409 -2.190689
		CHANNELS 3 Xrotation Yrotation Zrotation
		JOINT Chest2
		{
			OFFSET -0.137571 19.388336 9.118127
			CHANNELS 3 Xrotation Yrotation Zrotation
			JOINT Chest3
			{
				OFFSET 1.438714 14.423492 3.565526
				CHANNELS 3 Xrotation Yrotation Zrotation
				JOINT Neck
				{
					OFFSET 0.922269 16.680969 4.417100
					CHANNELS 3 Xrotation Yrotation Zrotation
					JOINT Head
					{
						OFFSET 1.854072 9.750237 3.364967
						CHANNELS 3 Xrotation Yrotation Zrotation
						End Site
						{
							OFFSET 1.816765 9.776726 3.307971
						}
					}
				}
				JOINT LeftCollar
				{
					OFFSET 5.801661 12.523956 3.360889
					CHANNELS 3 Xrotation Yrotation Zrotation
					JOINT LeftUpArm
					{
						OFFSET 12.949442 -0.105530 -11.865927
						CHANNELS 3 Xrotation Yrotation Zrotation
						JOINT LeftLowArm
						{
							OFFSET 28.802441 -17.377586 2.857735
							CHANNELS 3 Xrotation Yrotation Zrotation
							JOINT LeftHand
							{
								OFFSET 26.874649 -13.352119 0.648775
								CHANNELS 3 Xrotation Yrotation Zrotation
								End Site
								{
									OFFSET 5.873604 -2.918198 0.141790
								}
							}
						}
					}
				}
				JOINT RightCollar
				{
					OFFSET -1.171213 11.681572 7.998614
					CHANNELS 3 Xrotation Yrotation Zrotation
					JOINT RightUpArm
					{
						OFFSET -14.461750 -2.158676 9.731095
						CHANNELS 3 Xrotation Yrotation Zrotation
						JOINT RightLowArm
						{
							OFFSET 10.966553 -23.708298 21.386591
							CHANNELS 3 Xrotation Yrotation Zrotation
							JOINT RightHand
							{
								OFFSET 11.156601 -19.302361 20.097366
								CHANNELS 3 Xrotation Yrotation Zrotation
								End Site
								{
									OFFSET 2.438385 -4.218712 4.392490
								}
							}
						}
					}
				}
			}
		}
	}
	JOINT LeftUpLeg
	{
		OFFSET 9.074084 3.173031 -2.830551
		CHANNELS 3 Xrotation Yrotation Zrotation
		JOINT LeftLowLeg
		{
			OFFSET 42.187401 -1.833221 21.467432
			CHANNELS 3 Xrotation Yrotation Zrotation
			JOINT LeftFoot
			{
				OFFSET 44.228725 -3.121750 5.885673
				CHANNELS 3 Xrotation Yrotation Zrotation
				JOINT LeftToe
				{
					OFFSET 20.796089 -3.483150 10.721458
					CHANNELS 3 Xrotation Yrotation Zrotation
					End Site
					{
						OFFSET 12.395805 7.462208 18.714128
					}
				}
			}
		}
	}
	JOINT RightUpLeg
	{
		OFFSET -9.074016 -3.173214 2.830584
		CHANNELS 3 Xrotation Yrotation Zrotation
		JOINT RightLowLeg
		{
			OFFSET -6.922287 -3.902506 46.699722
			CHANNELS 3 Xrotation Yrotation Zrotation
			JOINT RightFoot
			{
				OFFSET 32.469234 -7.669838 -29.790966
				CHANNELS 3 Xrotation Yrotation Zrotation
				JOINT RightToe
				{
					OFFSET 15.255795 4.060343 17.616224
					CHANNELS 3 Xrotation Yrotation Zrotation
					End Site
					{
						OFFSET 0.363201 3.990387 23.313108
					}
				}
			}
		}
	}
}
MOTION
Frames: 11
Frame Time: 0.033333
1.833165 105.737564 -1.111787 15.500785 -19.408459 -20.849373 -30.756134 -15.271572 21.188761 1.415867 -8.109511 8.176969 5.167322 -2.544798 -10.396270 0.573802 -6.171836 6.738858 -0.000001 0.000001 -0.000001 -8.219648 22.523123 0.973313 18.773229 25.678952 -46.257302 -10.973876 -18.001110 -20.148775 -0.000003 -0.000002 -0.000002 10.623394 -33.758319 14.584730 28.526603 -41.246802 -15.703086 14.329185 17.447798 6.163298 -0.000006 0.000001 -0.000001 29.289060 -7.104908 -49.850778 -1.980775 -13.245654 -10.191128 -12.901398 -32.266565 38.693302 -0.000003 0.000004 0.000003 74.090074 27.424605 -6.006560 37.746241 -139.988006 40.525954 -49.712214 27.025301 27.754318 -0.000001 0.000001 -0.000000 
1.841344 105.741318 -1.118837 15.328148 -19.234655 -20.948187 -30.259862 -15.032102 21.147838 0.902048 -8.212283 8.427851 5.423463 -2.689985 -10.678915 0.243689 -6.213741 6.990973 0.000001 0.000004 0.000002 -8.074095 22.444358 1.150569 18.745565 25.457563 -46.570327 -10.695031 -18.262883 -19.827126 0.000000 -0.000001 0.000001 10.314920 -33.901360 14.223197 28.877883 -41.116219 -15.514628 14.231275 17.518897 5.909390 -0.000007 -0.000001 -0.000001 29.505567 -6.986101 -49.969678 -2.127578 -13.573644 -9.964574 -12.779021 -32.161185 38.534206 -0.000005 0.000003 0.000004 74.378069 27.387797 -6.066199 37.559326 -139.947530 40.532371 -49.719887 26.964354 27.745364 0.000000 -0.000000 -0.000000 
1.865140 105.746292 -1.117937 15.513094 -19.189321 -21.023134 -30.173201 -15.002873 21.155970 1.111091 -8.261373 8.425020 5.066752 -2.743869 -10.633864 0.554388 -6.056067 6.784406 -0.000001 -0.000004 -0.000002 -8.288709 22.995620 1.270712 18.832464 25.464602 -46.411060 -10.935451 -18.549655 -20.245596 -0.000002 -0.000001 0.000003 10.387041 -33.392870 14.218487 28.999142 -41.178510 -15.512468 13.874523 17.549860 6.141975 -0.000005 0.000001 -0.000000 29.390929 -7.085590 -49.911587 -1.960984 -13.493592 -9.993453 -13.027570 -32.081139 38.499679 -0.000001 0.000002 0.000003 74.119512 27.386666 -6.037226 37.926913 -139.967952 40.721779 -49.753068 27.045876 27.857075 -0.000001 0.000001 -0.000001 
1.905457 105.750122 -1.119117 15.716216 -19.392423 -21.079907 -30.461220 -15.136242 21.191224 0.939832 -8.294017 8.481713 5.441842 -2.649329 -10.690579 0.867926 -6.221908 6.603691 -0.000003 0.000004 0.000001 -8.119994 22.515896 1.418909 19.041468 25.757454 -46.837623 -10.608181 -18.063275 -20.107339 0.000004 0.000001 0.000003 10.174590 -33.349720 14.043067 29.083420 -41.507319 -15.430492 14.033325 17.435193 6.050936 -0.000004 0.000002 0.000002 29.369851 -7.110940 -49.955788 -2.124465 -13.772364 -9.844192 -13.231930 -31.879293 38.372904 -0.000003 -0.000002 0.000003 73.908808 27.336446 -5.949663 37.939566 -139.918174 40.729395 -50.163378 27.010531 28.144746 -0.000002 0.000001 0.000000 
1.956074 105.757950 -1.124855 15.932859 -19.465617 -21.158762 -30.987376 -15.406475 21.273884 1.388179 -8.207726 8.314611 5.251488 -2.658846 -10.528066 0.899253 -6.294846 6.662884 -0.000003 -0.000004 -0.000000 -7.985822 22.544303 1.294140 18.772331 25.420340 -46.880513 -10.516271 -17.914353 -19.924890 0.000000 -0.000001 0.000003 10.483007 -33.346124 14.217321 29.036876 -41.229911 -15.509990 13.612173 17.010374 6.142022 -0.000008 -0.000001 -0.000001 29.160400 -7.195759 -49.821217 -2.043066 -13.730804 -9.869082 -13.273334 -32.024373 38.618053 -0.000000 -0.000002 0.000003 73.396277 27.353542 -5.795933 38.009634 -139.775150 40.798926 -50.335858 27.141760 28.193177 -0.000001 -0.000001 -0.000000 
2.022877 105.766815 -1.134707 15.843647 -19.471568 -21.331932 -30.637975 -15.216183 21.183886 0.771579 -8.366166 8.626584 5.845745 -2.872506 -10.856710 0.632442 -6.379303 6.904067 -0.000001 0.000004 0.000001 -8.111509 22.958868 1.567879 18.617899 25.256890 -46.985298 -10.337468 -17.665466 -19.786126 0.000000 -0.000003 0.000001 10.608493 -33.283006 14.327095 28.997432 -40.813406 -15.375543 13.394284 16.928060 6.257363 -0.000009 0.000003 -0.000000 29.159300 -7.191148 -49.777596 -2.011799 -13.577734 -9.994788 -13.110381 -32.244363 38.792896 -0.000003 0.000001 0.000003 72.957909 27.376614 -5.667483 38.555270 -139.684936 40.847519 -50.116305 27.250054 28.010386 0.000000 -0.000000 -0.000001 
2.110236 105.771027 -1.140710 16.043850 -19.430517 -21.548980 -30.767864 -15.257067 21.125466 0.802004 -8.465879 8.748828 5.861507 -2.805637 -10.843954 1.190799 -6.609762 6.741215 -0.000001 0.000003 0.000001 -7.946642 22.645149 1.539143 18.652352 24.997574 -47.281882 -10.417836 -18.339678 -19.667303 -0.000003 0.000001 -0.000000 10.623979 -33.765607 14.366627 28.804287 -41.003354 -15.734017 13.193573 17.420671 6.517106 -0.000002 0.000005 0.000001 29.161660 -7.207205 -49.653061 -2.213247 -13.651047 -10.119607 -13.197917 -32.157074 38.895960 -0.000002 0.000003 0.000004 72.262090 27.527981 -5.501453 39.100692 -139.675675 40.577833 -50.442067 27.063078 28.263132 0.000002 0.000000 -0.000000 
2.200896 105.768829 -1.140410 15.658832 -19.532540 -21.694634 -30.274605 -14.983898 20.941421 0.775722 -8.532495 8.803810 5.784331 -2.735903 -10.640992 1.465428 -6.789091 6.617743 -0.000001 0.000004 0.000001 -7.766025 22.535287 1.811604 18.595528 24.597188 -47.635679 -9.858970 -18.555010 -19.383331 -0.000003 -0.000001 0.000002 10.454920 -33.839926 14.066646 28.828760 -41.004163 -15.943927 13.014435 17.748284 6.120388 -0.000004 -0.000001 -0.000001 29.791656 -6.999928 -50.020590 -2.480305 -13.932645 -10.068025 -13.349389 -32.172923 38.979248 -0.000005 0.000005 0.000003 72.216628 27.590182 -5.476610 39.514973 -139.706110 40.383244 -50.844475 26.936944 28.581495 -0.000002 0.000001 -0.000002 
2.319785 105.763199 -1.139284 15.856921 -19.352217 -21.985899 -30.247523 -14.975781 20.955881 1.335131 -8.542858 8.634840 5.405447 -2.820430 -10.421435 1.475984 -7.113146 6.787777 -0.000003 0.000001 0.000001 -7.520411 22.013146 1.559403 18.509758 24.365957 -47.703421 -10.065678 -19.391372 -19.388527 0.000002 0.000001 0.000002 10.508874 -33.797569 14.008464 28.746156 -40.996988 -16.127921 12.389685 18.444668 6.470736 -0.000001 0.000000 0.000002 29.693657 -6.880631 -49.921952 -2.315226 -13.642702 -10.360902 -12.595909 -32.905444 39.454215 -0.000003 0.000001 0.000003 71.434469 27.743916 -5.209484 39.894063 -139.659009 40.404858 -51.038288 27.685605 28.459339 0.000003 0.000000 0.000000 
2.467757 105.752762 -1.131943 16.171361 -19.394653 -22.102239 -30.165551 -14.887686 20.834799 1.650034 -8.557663 8.567034 5.209060 -2.731931 -10.250377 1.673568 -7.454797 6.912402 -0.000001 0.000003 0.000001 -7.380588 21.683697 1.897778 18.550343 24.324170 -47.998618 -10.284124 -19.854954 -19.899905 0.000000 -0.000001 0.000003 10.397875 -33.763476 13.829845 28.850395 -41.118524 -16.131092 11.667892 19.211604 7.136013 -0.000008 0.000003 -0.000000 29.476597 -6.967205 -49.914182 -2.367158 -13.291967 -10.769165 -11.912297 -33.483128 39.766468 -0.000003 0.000001 0.000003 70.445471 27.674885 -4.879922 40.910091 -139.552677 40.456426 -51.364590 28.154072 28.623347 0.000002 -0.000001 0.000000 
2.619466 105.746216 -1.121778 16.375208 -19.578302 -22.297931 -30.146263 -14.839706 20.800267 0.841393 -8.794266 8.994520 5.996793 -2.873153 -10.690758 1.812401 -7.601233 6.873321 0.000001 -0.000003 0.000001 -7.732266 22.217579 2.439060 18.582105 24.659293 -48.046009 -10.461972 -19.233312 -20.395710 0.000000 0.000001 0.000003 10.257325 -35.089967 14.068603 28.687027 -41.583810 -16.137789 12.166531 19.080272 7.294437 -0.000005 -0.000001 -0.000001 29.398125 -7.012310 -49.760336 -2.371611 -13.273651 -10.865473 -12.122355 -33.611931 39.929310 0.000001 0.000002 0.000003 70.079298 27.751144 -4.775865 41.084677 -139.506067 40.625378 -51.570155 28.685777 28.742286 -0.000001 0.000000 -0.000001 
